<svg width="577" height="415" viewBox="0 0 577 415" fill="none" xmlns="http://www.w3.org/2000/svg">
<g clip-path="url(#clip0_147_2)">
<path d="M553.194 290.682C561.013 284.364 568.229 276.694 572.105 267.292C575.798 258.333 576.355 247.943 572.51 238.931C568.993 230.689 562.314 224.413 554.853 219.676C550.447 216.878 545.759 214.429 540.822 212.708C535.401 210.815 529.725 209.686 524.023 209.057C518.233 208.417 512.432 208.126 506.611 208.017C500.867 207.908 495.134 207.726 489.396 207.435C488.673 207.398 487.95 207.357 487.226 207.315C486.503 207.273 485.79 207.346 485.067 207.398C484.297 207.455 483.642 207.996 483.569 208.787C483.501 209.525 483.964 210.31 484.734 210.461C487.549 211.007 490.504 210.929 493.365 210.877C496.227 210.825 499.02 210.737 501.85 210.664C507.48 210.529 513.161 210.622 518.785 210.966C524.408 211.309 529.923 212.094 535.297 213.592C540.505 215.042 545.437 217.19 550.14 219.837C557.522 223.986 564.618 229.353 568.91 236.799C573.525 244.807 574.139 254.552 571.506 263.325C568.681 272.732 562.303 281.031 554.936 287.385C554.026 288.171 553.1 288.93 552.163 289.673C551.446 290.24 552.476 291.249 553.188 290.677L553.194 290.682Z" fill="#346250"/>
<path d="M487.164 205.49C489.417 216.675 487.882 228.225 487.606 239.514C487.466 245.301 487.768 251.074 488.132 256.851C488.324 259.888 488.564 262.924 488.746 265.961C488.891 268.343 488.949 270.73 489.068 273.116C489.177 275.337 489.255 277.563 489.412 279.778C489.469 280.625 489.49 281.483 489.51 282.336C489.516 282.581 489.5 282.815 489.49 283.059C489.49 283.153 489.49 283.319 489.49 283.116C489.49 283.205 489.469 283.272 489.474 283.355C489.51 284.224 490.863 284.198 490.832 283.324C490.832 283.303 490.832 283.283 490.832 283.262C490.832 283.22 490.775 282.924 490.816 283.205C490.816 283.179 490.811 283.153 490.806 283.127C490.775 282.913 490.743 282.7 490.723 282.487C490.671 281.795 490.66 281.088 490.639 280.397C490.582 278.41 490.613 276.413 490.592 274.422C490.577 272.274 490.681 270.132 490.686 267.984C490.697 264.958 490.645 261.926 490.468 258.91C490.119 253.003 489.526 247.09 489.573 241.173C489.62 235.442 490.01 229.722 490.202 223.997C490.416 217.632 490.405 211.189 489.193 204.918C488.933 203.582 486.888 204.169 487.159 205.5L487.164 205.49Z" fill="#346250"/>
<path d="M513.514 219.738C509.155 218.376 504.587 219.463 500.134 219.302C497.532 219.208 494.952 218.839 492.361 218.615C491.107 218.506 489.859 218.355 488.605 218.225C487.351 218.095 485.723 217.71 484.578 218.334C483.886 218.709 483.949 219.738 484.604 220.102C485.223 220.451 485.952 220.42 486.644 220.425C487.336 220.43 487.986 220.425 488.652 220.425C489.906 220.44 491.149 220.482 492.403 220.576C494.9 220.763 497.408 220.846 499.91 220.82C502.111 220.794 504.306 220.659 506.507 220.628C508.707 220.596 511.002 220.617 513.145 221.241C514.107 221.522 514.461 220.029 513.509 219.728L513.514 219.738Z" fill="#346250"/>
<path d="M513.744 228.781C508.942 228.552 504.14 228.381 499.338 228.116C494.531 227.85 489.729 227.476 484.917 227.273C483.59 227.216 482.263 227.169 480.942 227.143C479.527 227.117 478.112 227.034 476.712 227.268C475.766 227.424 475.838 228.968 476.754 229.124C477.945 229.327 479.147 229.275 480.349 229.275C481.551 229.275 482.742 229.27 483.939 229.265C486.368 229.254 488.793 229.26 491.222 229.26C496.029 229.26 500.81 229.395 505.612 229.67C508.333 229.826 511.059 229.998 513.78 230.164C514.664 230.222 514.638 228.823 513.749 228.776L513.744 228.781Z" fill="#346250"/>
<path d="M513.738 293.48C509.119 293.48 504.509 293.584 499.9 293.88C498.079 293.995 496.274 294.114 494.453 294.151C492.632 294.187 490.92 294.223 489.167 294.421C487.289 294.634 485.411 294.998 483.746 295.929C483.288 296.184 483.117 296.844 483.398 297.286C484.319 298.747 485.957 299.449 487.617 299.678L487.575 297.785C486.176 298.243 484.756 298.628 483.361 299.091C482.326 299.434 482.513 301.03 483.653 301.004C488.314 300.916 492.981 300.921 497.647 300.921C499.978 300.921 502.309 300.9 504.645 300.859C506.98 300.817 509.337 300.812 511.631 300.495C512.126 300.427 512.334 299.616 511.736 299.533C509.478 299.221 507.142 299.189 504.863 299.137C502.584 299.085 500.113 299.044 497.736 299.033C493.027 299.013 488.319 299.033 483.611 299.049L483.902 300.963C485.317 300.557 486.738 300.183 488.116 299.663C488.527 299.507 488.834 299.158 488.824 298.701C488.813 298.305 488.496 297.817 488.075 297.77C486.961 297.65 485.718 297.281 485.104 296.267L484.756 297.624C487.586 296.101 491.181 296.189 494.302 296.101C498.261 295.986 502.199 295.601 506.158 295.508C508.697 295.445 511.236 295.419 513.78 295.425C515.034 295.425 514.992 293.475 513.733 293.475L513.738 293.48Z" fill="#346250"/>
<path d="M509.191 305.872C499.743 304.619 490.181 306.023 480.728 306.413C479.672 306.454 479.438 308.072 480.526 308.295C481.863 308.571 483.08 309.216 484.391 309.58L483.928 307.962C483.007 308.888 481.93 309.647 480.718 310.157C480.271 310.349 479.959 310.713 480.037 311.233C480.104 311.67 480.526 312.117 481.009 312.055C484.089 311.654 487.211 311.67 490.311 311.701C491.976 311.722 493.636 311.639 495.301 311.686C497.179 311.738 499.057 311.784 500.935 311.878C503.344 311.998 505.81 312.278 508.208 312.024C508.686 311.972 508.869 311.166 508.307 311.108C506.184 310.88 504.051 311.01 501.918 310.932C499.993 310.859 498.084 310.718 496.169 310.542C492.845 310.235 489.567 309.72 486.217 309.762C484.459 309.782 482.705 309.897 480.963 310.126L481.254 312.024C482.783 311.379 484.141 310.505 485.312 309.325C485.848 308.789 485.546 307.9 484.849 307.708C483.538 307.344 482.315 306.714 480.978 306.449L480.775 308.332C485.473 308.092 490.155 307.562 494.838 307.12C499.515 306.678 504.249 306.418 508.931 306.99C509.649 307.078 509.935 305.976 509.202 305.877L509.191 305.872Z" fill="#346250"/>
<path d="M548.975 293.085C549.797 293.204 550.567 293.449 551.352 293.698C551.758 293.828 552.169 293.938 552.57 294.073C553.064 294.239 553.423 294.374 553.756 294.51C555.629 295.269 557.439 296.137 559.145 297.224C562.194 299.169 564.962 301.68 566.502 305.014C566.757 305.57 566.923 306.329 566.944 307.016C566.965 307.754 566.845 308.409 566.538 309.189C566.595 309.049 566.398 309.486 566.361 309.553C566.268 309.74 566.169 309.917 566.06 310.099C565.773 310.588 565.435 311.035 565.087 311.482C564.213 312.6 563.333 313.724 562.366 314.764C559.4 317.962 555.644 320.593 551.337 321.586C549.188 322.08 546.982 322.117 544.818 322.501C543.699 322.699 542.576 322.933 541.452 323.099C541.161 323.141 540.843 323.131 540.557 323.214C540.255 323.302 539.954 323.479 539.678 323.619C539.142 323.895 538.627 324.202 538.091 324.472C537.123 324.961 537.821 326.505 538.835 326.193C539.376 326.027 539.902 325.928 540.458 325.835C541.015 325.741 541.473 325.575 542.003 325.335C542.95 324.904 544.022 324.633 545.026 324.384C547.034 323.885 548.99 323.203 550.993 322.673C552.996 322.143 555.015 321.649 556.934 320.827C559.239 319.839 561.351 318.607 563.266 316.979C564.4 316.017 565.472 314.972 566.424 313.828C567.22 312.871 568.057 311.857 568.551 310.702C569.285 308.981 569.436 307.14 569.015 305.32C568.562 303.36 567.698 301.738 566.445 300.172C565.102 298.498 563.479 297.094 561.752 295.836C559.858 294.452 557.803 293.267 555.66 292.32C554.604 291.857 553.501 291.467 552.387 291.155C551.904 291.02 551.415 290.937 550.92 290.869C550.213 290.771 549.932 290.745 549.224 290.677C547.856 290.547 547.586 292.898 548.964 293.095L548.975 293.085Z" fill="#346250"/>
<path d="M540.281 327.863C541.509 328.087 542.721 328.367 543.912 328.737C544.459 328.908 545 329.095 545.536 329.298C545.062 329.116 545.723 329.381 545.848 329.433C546.134 329.558 546.42 329.688 546.706 329.823C547.622 330.265 548.501 330.77 549.333 331.352C549.432 331.42 549.531 331.493 549.63 331.565C549.183 331.253 549.531 331.493 549.625 331.565C549.781 331.685 549.942 331.805 550.098 331.929C550.494 332.247 550.873 332.579 551.232 332.928C551.534 333.219 551.82 333.515 552.096 333.833C552.242 333.999 552.382 334.176 552.528 334.347C552.299 334.02 552.783 334.649 552.528 334.347C552.611 334.467 552.705 334.587 552.788 334.711C553.267 335.413 553.683 336.157 554.047 336.927C554.094 337.025 554.135 337.129 554.187 337.228C554.047 336.854 554.354 337.587 554.187 337.228C554.265 337.436 554.354 337.639 554.432 337.852C554.588 338.273 554.728 338.7 554.853 339.131C554.978 339.563 555.093 340.01 555.186 340.452C555.228 340.639 555.264 340.827 555.301 341.014C555.327 341.165 555.457 342.007 555.384 341.477C555.644 343.39 555.753 345.314 555.706 347.244C555.68 348.258 555.618 349.266 555.524 350.275C555.514 350.374 555.446 351.014 555.488 350.639C555.457 350.899 555.426 351.159 555.394 351.419C555.327 351.944 555.249 352.47 555.165 352.99C554.458 357.337 553.053 361.58 551.503 365.574C548.47 373.389 543.918 381.002 538.46 387.289C534.283 392.099 529.32 396.186 523.727 399.239C520.912 400.773 518.015 402.094 514.956 403.066C511.168 404.267 507.324 405.24 503.427 406.02C501.523 406.399 499.613 406.737 497.704 407.054C495.795 407.372 493.88 407.85 491.95 408.126C488.761 408.578 485.582 409.16 482.378 409.488C479.501 409.784 476.671 410.393 473.768 410.299C472.295 410.252 470.74 410.58 469.299 410.856C467.972 411.11 466.724 411.464 465.465 411.948C464.372 412.364 463.436 412.832 462.473 413.497C461.62 414.085 462.442 415.478 463.3 414.886C464.237 414.236 465.459 413.762 466.562 413.487C467.878 413.154 469.21 412.868 470.553 412.655C471.25 412.546 471.947 412.452 472.644 412.353C473.409 412.244 474.127 412.088 474.881 411.911C476.364 411.563 477.966 411.641 479.475 411.573C480.848 411.516 482.196 411.49 483.564 411.313C485.083 411.121 486.592 410.84 488.1 410.549C490.025 410.18 491.95 409.743 493.896 409.509C495.842 409.275 497.917 408.999 499.92 408.651C507.376 407.361 514.841 405.744 521.755 402.582C527.587 399.91 532.935 395.926 537.357 391.288C543.741 384.595 548.491 376.743 552.564 368.496C554.572 364.435 556.159 360.228 557.444 355.891C558.641 351.856 559.452 347.618 559.197 343.395C558.963 339.495 557.746 335.694 555.467 332.507C552.85 328.841 549.053 326.547 544.792 325.232C543.6 324.862 542.383 324.582 541.16 324.358C540.193 324.181 539.204 324.707 538.96 325.7C538.736 326.615 539.329 327.723 540.302 327.899L540.281 327.863Z" fill="#346250"/>
<path d="M492.783 395.364C488.662 395.91 484.594 396.753 480.572 397.793C476.551 398.833 472.311 400.055 468.269 401.506C467.192 401.89 466.115 402.291 465.064 402.743C463.956 403.216 462.65 403.596 462.015 404.709C461.729 405.213 462.005 406.045 462.64 406.128C463.758 406.274 464.606 405.78 465.579 405.307C466.552 404.834 467.431 404.407 468.367 403.976C470.209 403.118 472.082 402.353 473.991 401.656C475.901 400.96 477.976 400.216 480.026 399.639C482.076 399.062 484.027 398.609 486.051 398.188C488.298 397.72 490.556 397.335 492.829 397.039C493.891 396.904 493.859 395.219 492.793 395.364H492.783Z" fill="#346250"/>
<path d="M496.622 377.908C492.08 379.92 487.403 381.595 482.648 383.02C480.312 383.722 477.987 384.491 475.641 385.146C474.47 385.474 473.294 385.791 472.124 386.129C471.505 386.311 470.885 386.504 470.277 386.722C469.616 386.966 469.127 387.382 468.581 387.824C467.904 388.37 468.503 389.525 469.299 389.483C469.975 389.447 470.594 389.421 471.229 389.166C471.864 388.911 472.436 388.672 473.034 388.417C474.158 387.934 475.282 387.44 476.426 386.998C478.705 386.108 481.041 385.36 483.34 384.538C488.002 382.874 492.736 381.402 497.33 379.53C498.516 379.047 497.813 377.383 496.627 377.908H496.622Z" fill="#346250"/>
<path d="M460.71 303.215C458.015 303.402 455.325 303.553 452.625 303.641C451.277 303.683 449.925 303.719 448.577 303.74C447.906 303.75 447.235 303.756 446.559 303.761C445.929 303.761 445.237 303.667 444.806 304.213C444.545 304.541 444.54 304.915 444.816 305.238C445.274 305.773 445.961 305.654 446.6 305.617C447.272 305.581 447.943 305.539 448.614 305.498C449.961 305.409 451.309 305.31 452.656 305.196C455.351 304.972 458.041 304.733 460.736 304.51C461.563 304.442 461.542 303.158 460.704 303.215H460.71Z" fill="#346250"/>
<path d="M458.566 307.639C456.007 307.816 453.457 308.144 450.939 308.648C449.691 308.898 448.453 309.205 447.225 309.537C445.997 309.87 444.738 310.167 443.687 310.947C443.167 311.331 443.297 312.288 444.062 312.252C445.357 312.184 446.507 311.711 447.745 311.347C448.89 311.009 450.055 310.734 451.22 310.489C453.66 309.979 456.126 309.662 458.608 309.48C459.789 309.397 459.752 307.556 458.566 307.639Z" fill="#346250"/>
<path d="M490.639 323.406C482.747 323.375 474.876 322.912 467.051 321.882C463.134 321.368 459.232 320.692 455.387 319.792C453.785 319.418 452.084 319.09 450.612 318.32C449.384 317.681 448.286 316.844 447.381 315.793C443.63 311.456 445.487 305.003 449.493 301.55C451.699 299.652 454.43 298.441 457.146 297.468C459.862 296.496 462.515 295.877 465.236 295.232C468.971 294.348 472.722 293.521 476.442 292.591C480.162 291.66 484.105 290.719 487.83 289.387C488.751 289.06 489.661 288.711 490.561 288.342C492.158 287.687 491.149 285.352 489.62 286.163C482.336 290.037 474.309 291.987 466.313 293.771C460.522 295.061 454.383 296.272 449.275 299.449C448.036 300.219 446.861 301.139 445.898 302.242C444.811 303.485 444.072 304.92 443.531 306.469C442.506 309.392 442.584 312.699 444.202 315.388C445.82 318.076 448.489 319.745 451.387 320.744C453.202 321.373 455.133 321.763 457.011 322.168C458.993 322.6 460.991 322.974 462.993 323.302C471.172 324.638 479.49 325.19 487.773 325.335C488.74 325.351 489.708 325.361 490.681 325.366C491.935 325.366 491.893 323.422 490.634 323.416L490.639 323.406Z" fill="#346250"/>
<path d="M486.535 325.819C485.401 331.773 484.058 337.67 482.399 343.499C480.739 349.329 478.388 354.94 476.577 360.717C474.803 366.38 473.17 372.105 471.984 377.919C470.797 383.732 470.09 389.119 469.081 394.71C468.519 397.83 467.868 400.939 467.093 404.018C466.318 407.096 465.184 410.096 464.045 413.076C463.857 413.565 464.299 414.142 464.762 414.251C465.33 414.387 465.751 414.028 465.938 413.534C466.937 410.913 467.546 408.188 468.222 405.474C468.898 402.759 469.502 399.91 470.022 397.096C471.057 391.506 471.994 385.901 473.092 380.321C474.236 374.528 475.813 368.876 477.602 363.249C479.433 357.488 481.244 351.716 482.997 345.933C483.98 342.693 485.182 339.521 486.181 336.282C486.686 334.639 487.19 332.995 487.669 331.347C488.148 329.699 488.465 328.029 488.793 326.36C489.084 324.894 486.805 324.332 486.524 325.814L486.535 325.819Z" fill="#346250"/>
<path d="M551.368 302.877C550.426 303.007 549.489 303.225 548.714 303.813C548.012 304.348 547.45 305.04 547.289 305.934C547.107 306.933 547.497 307.916 548.168 308.649C548.257 308.748 548.355 308.841 548.454 308.93C548.511 308.982 548.574 309.028 548.631 309.075C548.657 309.096 548.683 309.112 548.704 309.132C548.985 309.34 549.042 309.382 548.87 309.257C548.772 309.179 548.756 309.169 548.818 309.226C548.969 309.382 549.177 309.517 549.349 309.642C549.401 309.678 549.448 309.715 549.5 309.751C549.692 309.871 549.146 309.481 549.505 309.751C549.573 309.803 549.64 309.855 549.713 309.902C550.239 310.271 550.873 310.547 551.508 310.646C551.851 310.698 552.19 310.724 552.533 310.677C552.616 310.666 552.705 310.651 552.793 310.635C552.954 310.609 552.627 310.651 552.736 310.646C552.861 310.64 552.986 310.614 553.11 310.588C553.256 310.562 553.397 310.521 553.537 310.464C554.473 310.1 555.186 309.528 555.686 308.654C556.133 307.869 556.284 306.881 555.941 306.028C555.738 305.524 555.478 305.087 555.139 304.671C555.072 304.588 555.004 304.51 554.926 304.437C554.89 304.406 554.853 304.374 554.817 304.343L554.77 304.307C554.536 304.135 554.505 304.109 554.682 304.234C554.682 304.203 554.479 304.062 554.458 304.047C554.333 303.948 554.208 303.854 554.073 303.766C553.266 303.23 552.164 302.97 551.232 303.313C550.723 303.501 550.665 304.286 551.253 304.416C551.42 304.452 551.581 304.504 551.742 304.541C551.825 304.556 551.903 304.577 551.987 304.603C552.028 304.614 552.065 304.629 552.106 304.64C552.252 304.681 552.034 304.603 552.117 304.64C552.413 304.77 552.684 304.931 552.96 305.097C553.064 305.159 552.83 304.983 552.918 305.066C552.949 305.092 552.98 305.113 553.012 305.139C553.074 305.191 553.131 305.243 553.188 305.295C553.235 305.341 553.287 305.394 553.334 305.44C553.334 305.44 553.407 305.529 553.412 305.529C553.36 305.534 553.298 305.362 553.397 305.529C553.469 305.654 553.547 305.778 553.615 305.903C553.651 305.971 553.683 306.044 553.719 306.111C553.782 306.22 553.646 305.908 553.683 306.028C553.698 306.075 553.719 306.116 553.735 306.158C553.782 306.304 553.813 306.449 553.849 306.595C553.828 306.324 553.896 306.766 553.849 306.595C553.86 306.746 553.88 306.896 553.906 307.047C553.938 307.219 553.891 306.928 553.891 306.922C553.891 306.928 553.901 307.016 553.901 307.032C553.906 307.104 553.917 307.177 553.922 307.25C553.927 307.323 553.932 307.396 553.932 307.468C553.932 307.52 553.912 307.796 553.932 307.604C553.953 307.401 553.917 307.676 553.912 307.713C553.896 307.775 553.886 307.838 553.865 307.9C553.854 307.936 553.844 307.968 553.834 308.004C553.782 308.17 553.86 307.91 553.865 307.916C553.88 307.931 553.724 308.139 553.709 308.16C553.683 308.202 553.573 308.389 553.646 308.248C553.719 308.108 553.579 308.321 553.542 308.358C553.485 308.42 553.423 308.482 553.36 308.54C553.329 308.571 553.292 308.597 553.261 308.628C553.183 308.701 553.402 308.534 553.261 308.628C553.121 308.722 552.954 308.81 552.803 308.904C552.684 308.982 552.986 308.841 552.814 308.904C552.746 308.924 552.684 308.95 552.616 308.966C552.59 308.976 552.554 308.976 552.528 308.987C552.392 309.034 552.611 308.961 552.606 308.976C552.606 308.987 552.439 308.976 552.424 308.976C552.408 308.976 552.247 308.976 552.242 308.966C552.236 308.956 552.471 309.008 552.33 308.971C552.294 308.961 552.257 308.961 552.221 308.95C552.106 308.93 551.997 308.898 551.888 308.862C551.857 308.852 551.831 308.841 551.799 308.831C551.659 308.789 551.893 308.862 551.898 308.872C551.877 308.836 551.747 308.805 551.706 308.789C551.591 308.732 551.482 308.675 551.378 308.607C551.326 308.571 551.274 308.534 551.217 308.503C551.04 308.389 551.414 308.664 551.217 308.503C551.118 308.42 551.024 308.332 550.925 308.248C550.91 308.233 550.894 308.212 550.873 308.196C550.764 308.124 551.133 308.54 550.873 308.212C550.889 308.233 550.644 307.926 550.816 308.139C550.842 308.17 550.936 308.29 550.816 308.139C550.743 308.035 550.686 307.921 550.608 307.827C550.504 307.692 550.712 308.129 550.634 307.895C550.613 307.832 550.587 307.77 550.566 307.708C550.535 307.598 550.504 307.494 550.478 307.385C550.468 307.328 550.457 307.266 550.442 307.208C550.592 307.843 550.436 307.125 550.416 307.011C550.405 306.943 550.358 306.688 550.41 307.006C550.421 307.073 550.462 307.323 550.41 307.006C550.4 306.886 550.4 306.772 550.405 306.652C550.405 306.626 550.416 306.595 550.41 306.569L550.374 306.896C550.405 306.751 550.421 306.61 550.416 306.465C550.416 306.402 550.405 306.345 550.405 306.283C550.405 306.22 550.405 306.163 550.405 306.101C550.405 305.94 550.343 306.543 550.374 306.382C550.379 306.35 550.384 306.314 550.389 306.283C550.4 306.226 550.421 306.168 550.436 306.106C550.483 305.887 550.239 306.522 550.374 306.272C550.405 306.215 550.431 306.163 550.468 306.106C550.629 305.825 550.233 306.376 550.369 306.226C550.421 306.168 550.473 306.111 550.525 306.054C550.54 306.038 550.561 306.023 550.577 306.007C550.686 305.898 550.244 306.241 550.421 306.132C550.566 306.044 550.712 305.955 550.863 305.877C551.107 305.752 550.514 306.012 550.832 305.893C550.925 305.862 551.014 305.83 551.107 305.799C551.326 305.732 551.55 305.685 551.779 305.648C552.101 305.591 552.481 305.258 552.621 304.977C552.762 304.697 552.819 304.4 552.772 304.083C552.679 303.454 552.054 302.788 551.357 302.882L551.368 302.877Z" fill="#346250"/>
<path d="M569.821 308.591C570.934 308.586 572.042 308.581 573.156 308.576C573.769 308.576 574.357 308.55 574.961 308.425C575.185 308.378 575.408 308.295 575.601 308.269C575.98 308.222 576.272 308.154 576.615 307.972C577.151 307.681 577.115 306.865 576.594 306.584C576.235 306.392 575.949 306.355 575.554 306.298C575.377 306.272 575.184 306.189 574.971 306.142C574.352 306.002 573.728 305.991 573.093 305.991C571.98 305.986 570.872 305.981 569.758 305.976C569.072 305.976 568.432 306.626 568.478 307.317C568.525 308.009 569.087 308.602 569.821 308.596V308.591Z" fill="#346250"/>
<path d="M394.565 221.137C387.953 219.775 381.075 218.87 374.4 220.347C367.008 221.985 360.681 226.342 355.094 231.288L357.066 233.217C361.051 228.464 364.713 223.243 367.559 217.731C369.905 213.191 373.225 205.813 369.078 201.294C365.785 197.701 360.458 199.146 356.613 200.893C350.823 203.525 345.657 207.575 340.735 211.543C336.469 214.986 332.515 218.735 328.431 222.385L329.826 223.753C339.273 215.136 350.344 207.04 356.239 195.361C358.954 189.979 360 183.759 356.8 178.336C354.168 173.874 349.538 171.082 344.398 170.738C339.258 170.395 333.774 172.475 329.17 174.924C323.562 177.904 318.448 181.825 313.698 186.011C308.948 190.197 304.817 194.425 300.843 199.058C297.997 202.37 295.104 205.849 292.966 209.676C291.26 212.734 290.235 216.296 290.204 219.806C290.183 222.505 290.88 225.739 293.388 227.216C296.493 229.041 300.021 227.029 302.638 225.271C306.097 222.942 309.141 220.035 311.747 216.79C316.492 210.877 319.743 203.868 322.849 196.999C325.372 191.424 327.713 185.943 328.978 179.922C331.454 168.149 331.376 153.947 324.597 143.511C321.226 138.321 316.164 134.681 310.186 133.106C301.139 130.714 290.953 131.322 281.973 133.672C263.167 138.586 248.449 153.334 237.425 168.7C232.253 175.907 227.545 183.77 224.549 192.157C223.581 194.867 222.827 197.68 222.509 200.545C222.213 203.223 222.207 206.296 223.919 208.537C228.039 213.93 236.53 209.141 240.192 205.662C245.915 200.233 248.953 192.823 251.867 185.668C255.326 177.16 258.287 168.445 261.569 159.87C265.513 149.574 269.363 139.236 272.833 128.769C279.601 108.364 285.1 87.2828 286.328 65.739C286.812 57.2525 286.9 48.7141 285.891 40.264C284.882 31.8139 282.951 23.7019 278.046 17.025C273.02 10.1817 266.231 4.99209 258.157 2.29327C250.394 -0.301557 241.982 -0.473158 233.949 0.722852C225.917 1.91886 217.416 4.67489 209.56 7.87811C201.705 11.0813 194.229 14.8514 187.06 19.261C173.029 27.8983 160.397 38.7716 149.597 51.1945C138.755 63.6642 129.687 77.6627 122.554 92.5556C115.349 107.605 110.048 123.579 106.775 139.938C104.996 148.831 103.935 157.816 103.128 166.844C102.197 177.254 101.734 187.727 102.436 198.163C103.139 208.6 105.308 218.6 108.393 228.558C108.898 230.185 111.447 229.462 110.942 227.824C104.944 208.439 104.939 187.846 106.65 167.821C108.065 151.295 110.786 135.05 115.807 119.216C120.567 104.193 127.143 89.7424 135.43 76.3367C143.718 62.931 153.577 50.8409 165.064 40.2536C176.582 29.6403 189.666 20.7638 203.832 14.061C217.874 7.41531 234.147 1.45606 249.931 3.66088C257.579 4.72689 264.8 7.85211 270.538 13.0678C276.63 18.6006 280.205 25.5167 282.088 33.4623C284.013 41.5796 284.367 50.0089 284.231 58.3238C284.086 67.611 283.274 76.8515 281.739 86.014C278.274 106.679 271.641 126.652 264.358 146.246C260.961 155.377 257.376 164.431 253.807 173.5C250.873 180.956 247.824 188.252 243.756 195.173C240.728 200.321 236.431 206.161 230.094 207.154C229.054 207.315 227.878 207.347 227.072 206.728C226.604 206.369 226.213 205.464 226.052 204.596C225.573 202.069 226.172 199.313 226.796 196.863C228.596 189.765 232.227 183.104 236.088 176.869C241.082 168.809 247.028 161.3 253.755 154.618C260.087 148.331 267.214 142.606 275.496 139.127C284.216 135.466 293.814 134.078 303.225 134.801C309.692 135.3 315.847 137.094 320.482 141.842C324.519 145.976 326.813 151.503 327.833 157.125C329.945 168.799 327.823 181.43 322.828 192.116C319.951 198.267 317.21 204.377 313.266 209.941C311.019 213.114 308.516 216.135 305.619 218.74C304.141 220.071 302.56 221.267 300.869 222.323C299.537 223.155 298.018 224.184 296.4 224.304C295.458 224.377 294.995 224.112 294.543 223.394C293.929 222.416 293.819 221.158 293.799 220.035C293.752 217.003 294.678 213.93 296.161 211.299C298.153 207.768 300.65 204.752 303.288 201.663C310.837 192.818 319.608 184.321 329.758 178.512C333.925 176.126 338.659 174.02 343.555 174.035C348.06 174.051 351.983 176.479 354.262 180.348C357.159 185.267 355.453 191.045 352.909 195.719C349.72 201.569 345.121 206.598 340.433 211.273C336.563 215.126 332.458 218.719 328.421 222.396C327.49 223.243 328.884 224.59 329.815 223.763C337.442 216.946 344.627 209.427 353.596 204.331C356.977 202.407 362.45 199.411 366.389 201.46C371.487 204.123 368.287 211.475 366.404 215.162C363.402 221.038 359.303 226.259 355.078 231.293C353.923 232.671 355.687 234.34 357.05 233.222C362.409 228.828 368.241 224.455 375.035 222.619C381.325 220.919 387.833 221.626 394.154 222.77C395.205 222.962 395.611 221.361 394.549 221.142L394.565 221.137Z" fill="#346250"/>
<path d="M111.395 227.694C108.211 216.654 101.682 206.967 92.4528 200.087C83.7803 193.623 73.3078 189.833 62.5855 188.642C40.8392 186.224 14.9986 193.909 4.78613 214.762C0.941509 222.624 -0.489168 231.605 0.145533 240.304C0.94151 251.256 5.32198 261.775 13.1257 269.601C24.9093 281.421 42.1866 286.642 58.3143 288.795C70.3632 290.401 82.5213 290.167 94.6379 289.637C103.019 289.273 111.4 288.94 119.781 288.592C140.825 287.718 161.927 287.328 182.981 286.99C206.964 286.605 230.948 286.184 254.931 285.914C278.269 285.649 301.613 285.451 324.951 285.253C344.413 285.092 363.886 285.108 383.349 284.744C387.032 284.676 390.72 284.557 394.404 284.557C395.975 284.557 395.923 282.118 394.347 282.118C377.007 282.118 359.677 281.957 342.332 282.191C320.196 282.492 298.065 282.887 275.933 283.345C252.387 283.834 228.841 284.276 205.299 284.874C183.392 285.43 161.49 285.935 139.582 286.47C130.389 286.694 121.196 286.897 112.009 287.11C103.295 287.313 94.5702 287.729 85.8561 287.744C74.0257 287.77 62.0132 286.834 50.4325 284.349C42.1294 282.565 33.9355 280.001 26.5897 275.659C16.6061 269.762 8.67237 260.704 5.43644 249.462C3.08492 241.308 3.10053 232.608 5.07227 224.533C6.65381 218.064 9.85333 211.969 14.3899 207.081C22.1415 198.73 33.1344 194.695 44.1324 192.755C64.7913 189.12 88.2961 195.969 100.777 213.571C104.039 218.168 106.401 223.269 107.961 228.677C108.601 230.892 112.045 229.909 111.405 227.689L111.395 227.694Z" fill="#346250"/>
<path d="M300.817 376.401C300.083 374.575 298.902 372.766 296.785 372.501C295.058 372.287 293.372 373.031 291.827 373.702C290.417 374.31 288.872 375.137 287.295 375.059C287.108 375.038 287.254 375.059 287.295 375.059C287.238 375.054 287.181 375.043 287.124 375.033C286.989 375.007 286.858 374.981 286.723 374.95C286.421 374.877 286.125 374.783 285.839 374.669C285.979 374.726 285.62 374.575 285.558 374.544C285.407 374.477 285.261 374.399 285.11 374.321C284.798 374.159 284.491 373.983 284.19 373.806C283.409 373.343 282.92 373.021 282.181 372.532C281.859 372.319 281.536 372.105 281.214 371.892C280.782 371.606 280.335 371.299 280.054 371.112C278.67 370.176 277.224 369.287 275.725 368.548C275.366 368.372 275.007 368.205 274.638 368.054C274.56 368.023 274.477 367.992 274.399 367.956L274.014 367.805C274.227 367.883 274.211 367.872 273.967 367.779C273.722 367.685 273.478 367.602 273.223 367.529C272.406 367.285 271.574 367.144 270.726 367.087C269.139 366.983 267.464 367.399 266.137 368.299C264.514 369.396 263.229 371.107 262.464 372.901C261.824 374.399 261.606 376.234 263.073 377.331C264.269 378.226 265.835 378.091 267.224 377.841C268.78 377.56 270.278 377.014 271.725 376.38C272.984 375.829 274.248 375.215 275.392 374.445C276.318 373.821 277.078 373.083 277.733 372.183C277.999 371.819 278.238 371.445 278.446 371.05C278.54 370.873 278.628 370.686 278.711 370.504C278.763 370.384 278.81 370.27 278.857 370.15C278.92 369.994 278.977 369.838 279.039 369.682C278.961 369.848 278.966 369.817 279.065 369.588C279.768 367.612 279.898 365.434 279.674 363.359C279.45 361.284 278.966 359.043 278.134 357.025C277.067 354.446 275.606 352.116 273.015 350.879C270.83 349.828 268.39 349.47 265.981 349.49C264.571 349.501 263.177 349.667 261.783 349.875C261.705 349.886 261.632 349.901 261.554 349.912C261.881 349.865 261.403 349.927 261.268 349.953C261.096 349.984 260.924 350.021 260.758 350.052C260.414 350.119 260.066 350.192 259.722 350.275C258.999 350.442 258.281 350.624 257.569 350.832C254.562 351.69 251.643 352.85 248.839 354.228C246.191 355.528 243.636 357.025 241.254 358.767C239.167 360.296 237.123 361.991 235.526 364.035C234.194 365.735 233.065 367.68 233.008 369.895C232.951 372.111 234.251 374.035 236.062 375.158C238.184 376.479 240.593 375.761 242.289 374.123C244.229 372.251 245.369 369.594 246.279 367.108C247.382 364.097 247.918 360.993 248.168 357.8C248.391 354.971 248.459 352.064 247.908 349.267C247.7 348.206 247.367 347.129 246.81 346.199C246.253 345.268 245.405 344.545 244.51 343.921C242.788 342.715 240.733 342.111 238.652 341.935C233.799 341.524 228.877 343.453 224.668 345.455C219.289 348.008 214.596 351.602 210.205 355.59C205.934 359.474 202.043 363.868 199.119 368.866C196.903 372.656 194.895 377.274 195.42 381.772C195.909 385.948 198.755 389.073 202.667 390.446C204.535 391.101 206.512 391.449 208.457 391.751C211.324 392.193 214.216 392.479 217.109 392.713C220.563 392.994 224.023 393.186 227.483 393.337C231.4 393.509 235.354 393.696 239.272 393.535C243.47 393.363 247.679 393.399 251.882 393.301C256.169 393.197 260.456 393.061 264.738 392.937C268.91 392.817 273.082 392.734 277.25 392.619C281.136 392.515 285.017 392.307 288.903 392.209C292.144 392.131 295.396 391.995 298.637 391.995C299.058 391.995 299.043 391.34 298.621 391.34C291.707 391.34 284.788 391.117 277.879 391.065C269.81 390.997 261.741 390.955 253.672 390.773C249.609 390.685 245.546 390.607 241.488 390.487C239.698 390.435 237.565 390.248 235.609 390.207C233.653 390.165 231.9 390.103 230.042 390.066C226.593 389.999 223.144 389.895 219.7 389.718C218.176 389.64 216.656 389.546 215.132 389.437C214.43 389.385 213.727 389.328 213.03 389.265C212.703 389.234 212.38 389.208 212.057 389.172C211.907 389.156 211.761 389.141 211.61 389.125C211.501 389.115 210.929 389.052 211.345 389.099C209.196 388.865 207.042 388.584 204.935 388.085C204.535 387.991 204.134 387.887 203.744 387.768C203.572 387.716 203.401 387.664 203.229 387.607C203.151 387.581 203.078 387.555 203 387.529C202.599 387.393 203.021 387.56 203.036 387.544C202.984 387.601 202.204 387.165 202.131 387.123C201.684 386.884 201.268 386.603 200.846 386.322C201.085 386.483 200.981 386.426 200.831 386.307C200.747 386.239 200.664 386.177 200.586 386.109C200.409 385.958 200.237 385.802 200.076 385.641C199.925 385.49 199.78 385.334 199.639 385.178C199.566 385.095 199.499 385.007 199.426 384.923C199.644 385.178 199.488 385.001 199.379 384.856C199.14 384.523 198.926 384.175 198.744 383.811C198.703 383.727 198.661 383.639 198.619 383.551C198.458 383.223 198.698 383.785 198.599 383.509C198.526 383.306 198.443 383.109 198.38 382.901C198.25 382.495 198.177 382.079 198.084 381.663C198.047 381.497 198.115 381.954 198.084 381.632C198.073 381.517 198.058 381.408 198.047 381.299C198.026 381.07 198.011 380.847 198 380.618C197.985 380.16 198 379.703 198.037 379.245C198.063 378.891 198.011 379.401 198.037 379.183C198.052 379.063 198.068 378.938 198.084 378.819C198.12 378.569 198.162 378.325 198.208 378.075C198.401 377.056 198.692 376.057 199.041 375.085C199.083 374.965 199.124 374.851 199.171 374.731C199.197 374.659 199.228 374.586 199.254 374.513C199.244 374.544 199.14 374.799 199.228 374.575C199.337 374.305 199.447 374.04 199.561 373.775C199.785 373.26 200.029 372.745 200.279 372.241C200.831 371.143 201.439 370.077 202.095 369.037C202.448 368.476 202.813 367.919 203.187 367.373C203.359 367.124 203.531 366.879 203.707 366.635C203.796 366.51 203.884 366.39 203.973 366.266C204.014 366.203 204.347 365.756 204.171 365.995C204.368 365.73 204.566 365.475 204.769 365.21C204.857 365.096 205.154 364.7 204.946 364.976C204.993 364.914 205.039 364.851 205.086 364.789C205.195 364.648 205.299 364.508 205.409 364.373C205.835 363.827 206.272 363.291 206.72 362.761C207.63 361.679 208.577 360.624 209.555 359.599C211.548 357.514 213.655 355.554 215.918 353.77C217.999 352.127 220.251 350.525 222.655 349.007C224.814 347.639 227.067 346.407 229.382 345.533C230.485 345.117 231.608 344.758 232.753 344.477C233.018 344.41 233.284 344.353 233.549 344.295C233.674 344.269 233.799 344.243 233.923 344.223C233.731 344.259 234.423 344.145 234.23 344.176C234.756 344.098 235.286 344.041 235.817 344.004C236.348 343.968 236.842 343.957 237.352 343.973C237.581 343.978 237.81 343.989 238.033 344.004C238.158 344.015 238.283 344.025 238.413 344.035C238.569 344.051 238.236 344.015 238.387 344.035C238.47 344.046 238.554 344.056 238.632 344.067C239.105 344.129 239.573 344.223 240.031 344.342C240.239 344.394 240.442 344.457 240.645 344.519C240.759 344.555 240.874 344.597 240.983 344.633C241.306 344.743 240.968 344.618 241.113 344.68C241.55 344.862 241.977 345.065 242.388 345.304C242.57 345.408 242.747 345.523 242.924 345.637C243.023 345.705 243.121 345.772 243.215 345.84C243.35 345.933 243.028 345.694 243.158 345.798C243.21 345.84 243.262 345.876 243.314 345.923C243.683 346.23 244.032 346.547 244.365 346.89C244.438 346.963 244.588 347.202 244.38 346.906C244.432 346.984 244.484 347.057 244.536 347.129C244.656 347.311 244.75 347.509 244.854 347.701C245.01 347.998 244.802 347.54 244.901 347.805C244.937 347.904 244.979 348.003 245.015 348.107C245.098 348.346 245.171 348.591 245.239 348.84C245.306 349.09 245.358 349.339 245.405 349.594C245.431 349.719 245.452 349.844 245.473 349.969C245.421 349.667 245.494 350.14 245.509 350.234C245.582 350.842 245.624 351.456 245.645 352.07C245.655 352.387 245.66 352.704 245.655 353.021C245.655 353.177 245.655 353.328 245.655 353.484C245.655 353.146 245.645 353.692 245.639 353.718C245.629 353.838 245.629 353.952 245.624 354.072C245.603 354.41 245.582 354.753 245.551 355.091C245.535 355.252 245.52 355.413 245.504 355.58C245.499 355.647 245.468 355.923 245.499 355.647C245.488 355.751 245.478 355.85 245.462 355.954C245.431 356.219 245.416 356.495 245.369 356.755C245.358 356.812 245.301 357.02 245.353 356.755C245.338 356.838 245.332 356.921 245.312 357.004C245.228 357.374 245.182 357.753 245.114 358.128C244.833 359.599 244.474 361.06 244.042 362.496C243.61 363.931 243.267 365.283 242.762 366.645C242.71 366.791 242.648 366.936 242.596 367.087C242.773 366.604 242.596 367.072 242.549 367.191C242.419 367.503 242.289 367.815 242.149 368.122C241.883 368.699 241.597 369.266 241.28 369.812C241.15 370.036 241.014 370.259 240.869 370.478C240.801 370.582 240.728 370.686 240.661 370.79C240.619 370.852 240.567 370.914 240.525 370.977C240.411 371.159 240.796 370.634 240.614 370.862C240.296 371.247 239.984 371.627 239.61 371.965C239.558 372.012 239.407 372.095 239.381 372.163C239.454 371.996 239.724 371.923 239.438 372.105C239.266 372.22 239.074 372.308 238.902 372.423C238.741 372.527 239.334 372.282 239.001 372.381C238.907 372.407 238.814 372.438 238.725 372.469C238.684 372.485 238.642 372.485 238.6 372.501C238.372 372.584 238.637 372.334 238.814 372.474C238.788 372.454 238.574 372.495 238.533 372.501C238.439 372.501 238.34 372.49 238.252 372.501C238.023 372.516 238.715 372.604 238.372 372.506C238.288 372.48 238.2 372.464 238.117 372.443C237.706 372.35 238.299 372.558 238.153 372.469C237.976 372.365 237.784 372.277 237.602 372.168C237.555 372.142 237.518 372.1 237.471 372.079C237.289 371.991 237.784 372.35 237.638 372.204C237.539 372.105 237.414 372.022 237.31 371.928C237.154 371.788 237.014 371.637 236.873 371.486C236.639 371.232 236.915 371.414 236.93 371.57C236.92 371.497 236.785 371.367 236.743 371.304C236.644 371.154 236.571 370.992 236.483 370.836C236.327 370.566 236.613 371.242 236.535 370.946C236.509 370.847 236.467 370.753 236.436 370.66C236.415 370.582 236.395 370.504 236.374 370.426C236.259 370.01 236.447 370.509 236.374 370.519C236.363 370.519 236.332 370.02 236.332 369.968C236.332 369.874 236.4 369.536 236.353 369.469C236.467 369.651 236.285 369.885 236.353 369.547C236.374 369.438 236.395 369.334 236.415 369.224C236.457 369.037 236.509 368.85 236.571 368.668C236.603 368.58 236.639 368.491 236.665 368.403C236.733 368.174 236.592 368.616 236.582 368.616C236.592 368.616 236.66 368.429 236.665 368.413C236.847 368.018 237.04 367.628 237.269 367.254C237.399 367.04 237.529 366.832 237.669 366.63C237.732 366.536 237.799 366.442 237.862 366.349C237.893 366.302 237.929 366.255 237.961 366.208C238.148 365.933 237.695 366.541 237.908 366.281C238.236 365.876 238.559 365.47 238.913 365.08C239.714 364.196 240.583 363.38 241.488 362.605C241.722 362.402 241.961 362.204 242.206 362.012C242.273 361.955 242.721 361.601 242.362 361.882C242.497 361.778 242.632 361.674 242.768 361.57C243.309 361.159 243.855 360.764 244.412 360.379C245.577 359.573 246.779 358.824 248.006 358.117C249.234 357.41 250.571 356.713 251.893 356.084C252.194 355.938 252.501 355.803 252.808 355.663C252.98 355.585 253.152 355.502 253.323 355.429C253.427 355.382 253.87 355.19 253.786 355.226C253.672 355.278 254.073 355.106 254.135 355.08C254.307 355.008 254.484 354.935 254.66 354.867C255.009 354.727 255.358 354.586 255.711 354.456C258.302 353.474 260.987 352.688 263.723 352.231C263.801 352.215 264.197 352.158 263.942 352.194C264.087 352.174 264.233 352.153 264.379 352.132C264.524 352.111 264.665 352.096 264.81 352.08C264.894 352.07 265.674 351.986 265.346 352.023C265.965 351.96 266.584 351.924 267.209 351.919C267.765 351.914 268.317 351.934 268.874 351.981C268.936 351.981 268.998 351.992 269.061 351.997C268.837 351.976 269.004 351.992 269.05 351.997C269.191 352.012 269.326 352.033 269.467 352.054C269.737 352.096 270.008 352.142 270.273 352.2C270.518 352.252 270.762 352.314 271.007 352.382C271.116 352.413 271.23 352.449 271.34 352.486C271.397 352.501 271.449 352.527 271.501 352.543C271.74 352.631 271.34 352.475 271.558 352.564C272.005 352.756 272.442 352.969 272.859 353.229C272.963 353.297 273.062 353.364 273.166 353.432C273.384 353.578 273.16 353.422 273.27 353.505C273.462 353.656 273.649 353.812 273.826 353.983C273.993 354.144 274.144 354.321 274.3 354.493C274.336 354.534 274.367 354.576 274.404 354.618C274.503 354.737 274.295 354.472 274.383 354.597C274.466 354.711 274.544 354.82 274.622 354.935C276.677 358.039 277.608 362.147 276.969 365.772C276.885 366.25 276.776 366.723 276.636 367.191C276.573 367.394 276.511 367.597 276.438 367.8C276.428 367.836 276.334 368.086 276.422 367.857C276.339 368.075 276.245 368.33 276.152 368.533C276.277 368.268 276.011 368.793 275.991 368.84C275.902 369.022 275.803 369.198 275.699 369.375C275.595 369.552 275.486 369.713 275.377 369.885C275.127 370.29 275.507 369.734 275.33 369.958C275.252 370.056 275.179 370.15 275.096 370.244C274.82 370.566 274.523 370.857 274.211 371.143C274.149 371.2 273.889 371.398 274.149 371.206C274.071 371.268 273.988 371.325 273.904 371.382C273.727 371.502 273.551 371.617 273.363 371.721C272.848 372.022 272.312 372.298 271.771 372.558C271.464 372.703 271.157 372.844 270.845 372.984C270.788 373.01 270.538 373.114 270.767 373.021C271.033 372.911 270.648 373.067 270.627 373.078C270.45 373.151 270.278 373.218 270.101 373.291C269.42 373.556 268.738 373.821 268.041 374.045C267.401 374.248 266.751 374.373 266.101 374.539C265.887 374.596 266.454 374.508 266.236 374.518C266.153 374.523 266.069 374.539 265.991 374.549C265.867 374.565 265.742 374.575 265.617 374.581C265.497 374.586 265.383 374.581 265.263 374.586C265.211 374.586 265.149 374.575 265.097 374.581C264.831 374.601 265.471 374.679 265.232 374.591C265.159 374.565 265.029 374.534 264.951 374.529C264.842 374.523 265.325 374.778 265.05 374.56C264.774 374.341 265.414 374.887 265.18 374.659C265.065 374.544 265.06 374.44 265.32 374.851C265.268 374.768 265.237 374.622 265.32 374.893C265.409 375.194 265.372 375.017 265.351 374.95C265.279 374.679 265.404 375.153 265.372 375.153C265.362 375.153 265.367 374.877 265.362 374.851C265.341 374.643 265.258 375.241 265.378 374.861C265.43 374.695 265.476 374.529 265.523 374.362C265.554 374.248 265.669 374.133 265.487 374.456C265.528 374.383 265.554 374.295 265.591 374.217C265.674 374.045 265.757 373.873 265.846 373.707C266.09 373.254 266.361 372.818 266.652 372.397C266.808 372.173 266.491 372.594 266.657 372.391C266.72 372.313 266.782 372.235 266.845 372.163C266.98 372.001 267.126 371.84 267.276 371.689C267.401 371.559 267.537 371.44 267.672 371.32C267.739 371.263 267.802 371.206 267.869 371.154C267.537 371.419 267.88 371.154 267.937 371.117C268.213 370.94 268.489 370.784 268.775 370.634C269.03 370.498 268.759 370.644 268.712 370.66C268.806 370.628 268.894 370.592 268.983 370.561C269.144 370.504 269.311 370.457 269.482 370.415C269.576 370.394 269.67 370.379 269.763 370.358C269.982 370.306 269.472 370.389 269.696 370.368C269.867 370.353 270.039 370.332 270.211 370.322C270.564 370.306 270.913 370.322 271.267 370.348C270.908 370.316 271.329 370.363 271.454 370.379C271.615 370.405 271.777 370.436 271.938 370.472C272.307 370.55 272.671 370.66 273.036 370.769C273.4 370.878 273.743 370.987 274.092 371.107C274.164 371.133 274.445 371.242 274.154 371.128C274.237 371.159 274.321 371.195 274.404 371.232C274.617 371.32 274.825 371.408 275.033 371.502C277.915 372.781 280.532 374.581 283.394 375.891C284.595 376.442 285.719 376.952 287.129 377.051C288.7 377.165 290.245 376.479 291.65 375.865C292.977 375.283 294.392 374.466 295.864 374.373C297.492 374.269 298.382 375.511 298.944 376.957C299.396 378.122 301.285 377.581 300.817 376.421V376.401Z" fill="#346250"/>
<path d="M282.094 390.176C282.094 390.176 282.12 390.139 282.094 390.139C282.067 390.139 282.067 390.176 282.094 390.176Z" fill="#346250"/>
<path d="M405.917 124.224C408.43 124.224 410.922 123.995 413.398 123.579C415.531 123.22 417.596 122.575 419.693 122.066C422.684 121.343 425.728 120.807 428.667 119.892C429.666 119.58 430.858 119.253 431.695 118.597C432.065 118.306 432.195 117.926 432.345 117.49C432.58 116.824 432.772 116.148 432.985 115.472C433.958 112.357 434.843 109.232 435.436 106.018C435.987 103.039 436.455 100.002 437.371 97.1055C437.532 96.5907 437.714 96.0915 437.969 95.6131C438.021 95.5091 438.084 95.4103 438.141 95.3115C438.209 95.2075 438.224 95.1867 438.214 95.1971C438.266 95.1347 438.318 95.0775 438.37 95.0203C438.386 95.0047 438.406 94.9995 438.386 94.9943C438.412 94.9995 438.344 94.9995 438.339 94.9995C438.146 94.9319 438.365 95.0827 438.229 94.9371C438.281 94.9943 438.354 95.0411 438.406 95.1035C438.469 95.1815 438.375 95.0411 438.49 95.2179C438.542 95.2959 438.588 95.3791 438.635 95.4571C438.739 95.6443 438.838 95.8471 438.916 96.0343C440.003 98.6395 440.388 101.624 440.784 104.401C441.2 107.324 441.231 110.355 442.017 113.21C442.402 114.598 443.005 116.351 444.358 117.094C445.487 117.713 447.146 117.614 448.395 117.614C452.177 117.614 455.949 117.126 459.721 116.845C461.609 116.704 463.498 116.704 465.386 116.595C467.878 116.45 470.349 116.075 472.826 115.763C474.98 115.498 477.133 115.311 479.303 115.248C480.822 115.207 482.362 115.139 483.876 115.306C483.876 115.306 484.006 115.342 484.016 115.332C484.1 115.29 484.074 115.482 483.985 115.311C483.834 115.025 483.616 115.046 483.756 114.619C483.824 114.406 484.016 114.38 483.741 114.505C483.694 114.526 483.569 114.578 483.382 114.64C483.153 114.718 482.924 114.78 482.695 114.843C481.41 115.181 480.099 115.415 478.793 115.649C476.005 116.143 473.185 116.512 470.407 117.068C467.088 117.729 463.805 118.649 460.579 119.674C458.982 120.183 457.39 120.724 455.84 121.369C454.784 121.806 453.66 122.253 452.77 122.986C452.032 123.595 451.6 124.588 451.22 125.446C450.596 126.86 450.101 128.337 449.644 129.814C448.562 133.313 447.703 136.881 446.954 140.463C446.246 143.833 445.757 147.255 445.206 150.656C444.654 154.056 444.16 157.114 443.645 160.343C443.562 160.868 443.479 161.394 443.39 161.919L444.722 162.064C444.389 158.18 443.822 154.311 443.182 150.468C442.818 148.284 442.287 146.142 441.824 143.979C441.429 142.133 441.049 140.287 440.638 138.446C440.316 137 440.009 135.549 439.691 134.099C439.66 133.953 439.629 133.813 439.603 133.667C439.645 133.896 439.582 133.506 439.577 133.459C439.525 133.074 439.478 132.689 439.431 132.299C439.207 130.495 439.109 128.488 438.412 126.793C438.115 126.065 437.766 125.581 437.007 125.305C436.247 125.03 435.358 124.895 434.525 124.785C432.038 124.463 429.531 124.369 427.034 124.141C423.657 123.829 420.317 123.132 416.941 122.778C415.078 122.586 413.211 122.435 411.338 122.336C409.465 122.237 407.514 122.066 405.6 122.081C404.481 122.092 404.517 123.829 405.641 123.818C408.95 123.782 412.207 123.761 415.51 124.011C418.673 124.255 421.805 124.65 424.932 125.196C427.325 125.612 429.749 125.794 432.158 126.096C433.199 126.226 434.244 126.361 435.269 126.595C435.623 126.678 436.024 126.782 436.242 126.886C436.305 126.917 436.716 127.115 436.45 126.969C436.554 127.027 436.414 126.943 436.409 126.902C436.414 126.959 436.497 127.042 436.523 127.099C436.492 127.032 436.554 127.183 436.591 127.313C436.643 127.479 436.684 127.645 436.726 127.817C436.84 128.264 436.96 128.711 437.064 129.164C437.267 130.079 437.428 131.005 437.584 131.93C437.902 133.828 438.344 135.643 438.823 137.515C439.801 141.332 440.602 145.211 441.497 149.049C442.495 153.328 443.037 157.717 443.375 162.096C443.432 162.818 444.571 163.032 444.706 162.241C445.679 156.552 446.673 150.864 447.688 145.18C448.301 141.753 449.009 138.337 449.841 134.957C450.616 131.805 451.402 128.519 452.802 125.576C452.921 125.321 453.051 125.071 453.187 124.832C453.27 124.692 453.483 124.359 453.493 124.343C453.743 124.042 453.92 123.943 454.295 123.719C455.444 123.038 456.719 122.56 457.968 122.102C461.339 120.865 464.814 119.866 468.31 119.024C471.036 118.363 473.793 117.947 476.561 117.495C478.091 117.245 479.62 116.985 481.139 116.678C482.154 116.476 483.21 116.278 484.167 115.878C484.5 115.737 484.864 115.566 485.036 115.228C485.26 114.791 485.083 114.276 484.651 114.047C484.188 113.798 483.548 113.818 483.038 113.787C482.18 113.74 481.321 113.735 480.463 113.74C475.854 113.761 471.343 114.453 466.76 114.858C464.757 115.035 462.743 115.03 460.74 115.17C458.738 115.311 456.828 115.503 454.877 115.68C452.926 115.857 451.069 116.023 449.16 116.096C448.379 116.127 447.594 116.138 446.813 116.101C446.288 116.075 445.648 116.08 445.149 115.893C444.54 115.664 444.176 114.942 443.921 114.396C443.552 113.595 443.323 112.721 443.141 111.863C442.823 110.381 442.724 108.889 442.589 107.386C442.324 104.422 441.939 101.442 441.294 98.5407C441.018 97.3083 440.701 96.0603 440.16 94.9163C439.801 94.1623 439.187 93.3147 438.25 93.3719C437.225 93.4343 436.705 94.5835 436.393 95.4103C435.909 96.6791 435.602 98.0103 435.332 99.3363C434.744 102.207 434.416 105.124 433.859 108.005C433.511 109.799 432.954 111.567 432.403 113.309C432.132 114.162 431.82 115.02 431.471 115.841C431.341 116.148 431.196 116.455 431.05 116.756C430.988 116.881 430.701 117.261 430.722 117.396C430.712 117.313 430.878 117.25 430.858 117.245C430.837 117.24 430.691 117.339 430.67 117.349C430.686 117.344 430.701 117.339 430.577 117.386C430.457 117.427 430.337 117.469 430.218 117.505C429.661 117.677 429.094 117.807 428.522 117.926C426.956 118.254 425.39 118.592 423.829 118.92C420.245 119.674 416.676 120.475 413.07 121.119C410.682 121.546 408.294 121.957 405.865 122.113C404.517 122.196 404.554 124.213 405.912 124.213L405.917 124.224Z" fill="#346250"/>
</g>
<defs>
<clipPath id="clip0_147_2">
<rect width="577" height="415" fill="white"/>
</clipPath>
</defs>
</svg>
