<svg viewBox="0 0 120 36" xmlns="http://www.w3.org/2000/svg" class="css-vrejbf"><path d="M22.3396 16.8005C23.895 16.8005 25.1558 15.5846 25.1558 14.0847C25.1558 12.5848 23.895 11.3689 22.3396 11.3689C20.7843 11.3689 19.5234 12.5848 19.5234 14.0847C19.5234 15.5846 20.7843 16.8005 22.3396 16.8005Z" fill="currentColor"/><path d="M70.2686 7.68896C67.0937 7.68896 64.5205 9.2194 63.1791 11.2565L63.1942 7.68896L58.4375 8.89979C58.9933 11.5102 59.1444 14.1084 59.1444 16.8479V27.3116C59.1444 30.2039 58.92 33.1067 58.6832 35.9999H63.6528C63.3347 33.227 63.1173 30.4436 63.1102 27.6698C64.4173 27.9965 65.7601 28.1605 67.1078 28.158C73.6274 28.158 78.2064 24.1489 78.2064 17.1772C78.2082 11.5216 75.2144 7.68896 70.2686 7.68896ZM67.76 27.1237C65.9105 27.1237 64.2819 26.3853 63.1208 24.8671L63.1791 11.9782C64.6018 10.95 66.5476 10.3459 68.2849 10.3459C72.1782 10.3459 74.1894 13.3313 74.1894 18.3054C74.185 23.9487 71.5941 27.1237 67.76 27.1237Z" fill="currentColor"/><path d="M20.2443 21.7035L11.5333 11.8887C15.1987 11.3952 18.4346 9.4003 18.4346 5.63172C18.4346 2.4804 16.2449 0.012207 11.6429 0.012207C6.6945 0.012207 4.16462 2.89308 4.16462 6.29113C4.16462 8.63113 5.2789 10.8429 6.94546 12.6947C2.35668 13.8731 0 16.7022 0 20.0695C0 24.7609 3.15903 28.158 8.05797 28.158C11.4061 28.158 14.3407 26.4063 15.3578 24.1954L15.0856 23.961C13.7964 25.3483 12.2226 25.9006 10.2697 25.9006C6.40113 25.9006 3.85711 22.9258 3.85711 18.9877C3.85711 16.2421 5.18258 14.327 7.42263 13.2216L16.6002 23.349C17.6888 24.5484 19.085 26.3124 20.2443 27.7814H26.1365C23.9715 25.7592 22.0425 23.7371 20.2443 21.7035ZM11.6076 1.01143C14.0208 1.01143 15.1925 2.69201 15.1925 5.65542C15.1925 8.29747 13.7981 10.3196 11.073 11.3689C8.50951 8.46606 7.60819 6.9523 7.60819 4.85552C7.60819 2.31621 9.13425 1.01143 11.6076 1.01143Z" fill="currentColor"/><path d="M92.0768 24.7364C87.1072 24.7364 84.7646 20.7272 84.7646 15.7803C84.7646 15.6275 84.7708 15.4826 84.7752 15.3334H98.4187C98.4187 10.5919 95.8031 7.69434 90.4553 7.69434C84.4686 7.69434 80.8359 11.6333 80.8359 17.6057C80.8359 23.8135 84.7876 28.1748 90.6329 28.1748C95.721 28.1748 98.88 24.9181 99.3881 19.5568L99.0452 19.4988C97.946 22.8082 95.523 24.7364 92.0768 24.7364ZM90.184 8.72341C93.1981 8.72341 94.4167 10.3917 94.4193 14.191H84.8459C85.2162 10.742 86.8871 8.72341 90.184 8.72341Z" fill="currentColor"/><path d="M115.029 27.77H119.998C119.644 24.8777 119.524 21.9854 119.524 19.0817V14.2243C119.524 10.0035 117.465 7.68726 113.786 7.68726C112.393 7.68631 111.021 8.01184 109.779 8.63738C108.537 9.26293 107.462 10.1708 106.639 11.2873V7.68726L101.883 8.89984C102.439 11.5103 102.605 14.1084 102.605 16.8479V19.0817C102.605 21.9854 102.486 24.8768 102.131 27.77H107.101C106.757 24.8777 106.639 21.9854 106.639 19.0817V12.0494C108.396 10.9957 110.512 10.4399 112.271 10.4399C114.437 10.4399 115.502 11.2987 115.502 14.2261V19.0817C115.502 21.9854 115.384 24.8777 115.029 27.77Z" fill="currentColor"/><path d="M42.4283 0C35.2823 0 29.0234 4.8082 29.0234 14.0734C29.0234 23.3385 35.2823 28.1467 42.4283 28.1467C49.5744 28.1467 55.8341 23.3377 55.8341 14.0734C55.8341 4.80907 49.5717 0 42.4283 0ZM42.4283 27.065C37.5542 27.065 33.8146 23.1735 33.8146 14.0699C33.8146 4.96624 37.5542 1.07473 42.4283 1.07473C47.3025 1.07473 51.0421 4.96624 51.0421 14.0699C51.0421 23.1735 47.3034 27.065 42.4283 27.065Z" fill="currentColor"/></svg>